/* XPM */
static char *vbar_3[] = {
/* columns rows colors chars-per-pixel */
"8 24 2 1",
"  c none",
". c #d39e6e",
/* pixels */
"        ",
"        ",
"        ",
"        ",
"        ",
"        ",
"        ",
"        ",
"        ",
"        ",
"        ",
"        ",
"        ",
"        ",
"........",
"........",
"........",
"........",
"........",
"........",
"........",
"........",
"........",
"........"
}