/* XPM */
static char *vbar_1[] = {
/* columns rows colors chars-per-pixel */
"8 24 2 1",
"  c none",
". c #c1af9f",
/* pixels */
"        ",
"        ",
"        ",
"        ",
"        ",
"        ",
"        ",
"        ",
"        ",
"        ",
"        ",
"        ",
"        ",
"        ",
"        ",
"        ",
"        ",
"        ",
"        ",
"        ",
"........",
"........",
"........",
"........"
}