/* XPM */
static char *vbar_7[] = {
/* columns rows colors chars-per-pixel */
"8 24 2 1",
"  c none",
". c #bb6048",
/* pixels */
"        ",
"        ",
"........",
"........",
"........",
"........",
"........",
"........",
"........",
"........",
"........",
"........",
"........",
"........",
"........",
"........",
"........",
"........",
"........",
"........",
"........",
"........",
"........",
"........"
}