/* XPM */
static char *vbar_5[] = {
/* columns rows colors chars-per-pixel */
"8 24 2 1",
"  c none",
". c #dc9656",
/* pixels */
"        ",
"        ",
"        ",
"        ",
"        ",
"        ",
"        ",
"        ",
"........",
"........",
"........",
"........",
"........",
"........",
"........",
"........",
"........",
"........",
"........",
"........",
"........",
"........",
"........",
"........"
}