/* XPM */
static char *vbar_6[] = {
/* columns rows colors chars-per-pixel */
"8 24 2 1",
"  c none",
". c #dc322f",
/* pixels */
"        ",
"        ",
"        ",
"        ",
"        ",
"........",
"........",
"........",
"........",
"........",
"........",
"........",
"........",
"........",
"........",
"........",
"........",
"........",
"........",
"........",
"........",
"........",
"........",
"........"
}